<mxfile host="app.diagrams.net" modified="2024-04-26T23:15:51.636Z" agent="Mozilla/5.0 (Windows NT 10.0; Win64; x64; rv:125.0) Gecko/20100101 Firefox/125.0" etag="olWsCbTsfhX1F9PHMP6q" version="24.3.0" type="device">
  <diagram name="Página-1" id="RXc2RLLWSJeJABgzcuFo">
    <mxGraphModel dx="2713" dy="785" grid="1" gridSize="10" guides="1" tooltips="1" connect="1" arrows="1" fold="1" page="1" pageScale="1" pageWidth="827" pageHeight="1169" math="0" shadow="0">
      <root>
        <mxCell id="0" />
        <mxCell id="1" parent="0" />
        <mxCell id="RIBPLgs2tIToHIS9_J1g-52" value="" style="rounded=0;whiteSpace=wrap;html=1;fillColor=#FCFCFC;" parent="1" vertex="1">
          <mxGeometry x="-780" y="190" width="1560" height="950" as="geometry" />
        </mxCell>
        <mxCell id="Phphtxd2D6d0RNNB2ZdB-5" value="Models" style="swimlane;whiteSpace=wrap;html=1;fillColor=#dae8fc;strokeColor=#6c8ebf;" parent="1" vertex="1">
          <mxGeometry x="95" y="468" width="200" height="442" as="geometry">
            <mxRectangle x="-300" y="70" width="80" height="30" as="alternateBounds" />
          </mxGeometry>
        </mxCell>
        <mxCell id="Phphtxd2D6d0RNNB2ZdB-6" value="Funcionários" style="swimlane;fontStyle=0;childLayout=stackLayout;horizontal=1;startSize=30;horizontalStack=0;resizeParent=1;resizeParentMax=0;resizeLast=0;collapsible=1;marginBottom=0;whiteSpace=wrap;html=1;" parent="Phphtxd2D6d0RNNB2ZdB-5" vertex="1">
          <mxGeometry x="30" y="40" width="140" height="180" as="geometry" />
        </mxCell>
        <mxCell id="Phphtxd2D6d0RNNB2ZdB-7" value="id" style="text;strokeColor=none;fillColor=none;align=left;verticalAlign=middle;spacingLeft=4;spacingRight=4;overflow=hidden;points=[[0,0.5],[1,0.5]];portConstraint=eastwest;rotatable=0;whiteSpace=wrap;html=1;" parent="Phphtxd2D6d0RNNB2ZdB-6" vertex="1">
          <mxGeometry y="30" width="140" height="30" as="geometry" />
        </mxCell>
        <mxCell id="Phphtxd2D6d0RNNB2ZdB-8" value="nome" style="text;strokeColor=none;fillColor=none;align=left;verticalAlign=middle;spacingLeft=4;spacingRight=4;overflow=hidden;points=[[0,0.5],[1,0.5]];portConstraint=eastwest;rotatable=0;whiteSpace=wrap;html=1;" parent="Phphtxd2D6d0RNNB2ZdB-6" vertex="1">
          <mxGeometry y="60" width="140" height="30" as="geometry" />
        </mxCell>
        <mxCell id="Phphtxd2D6d0RNNB2ZdB-9" value="email" style="text;strokeColor=none;fillColor=none;align=left;verticalAlign=middle;spacingLeft=4;spacingRight=4;overflow=hidden;points=[[0,0.5],[1,0.5]];portConstraint=eastwest;rotatable=0;whiteSpace=wrap;html=1;" parent="Phphtxd2D6d0RNNB2ZdB-6" vertex="1">
          <mxGeometry y="90" width="140" height="30" as="geometry" />
        </mxCell>
        <mxCell id="0NND2-33mNeLUR3VQcW5-70" value="senha" style="text;strokeColor=none;fillColor=none;align=left;verticalAlign=middle;spacingLeft=4;spacingRight=4;overflow=hidden;points=[[0,0.5],[1,0.5]];portConstraint=eastwest;rotatable=0;whiteSpace=wrap;html=1;" parent="Phphtxd2D6d0RNNB2ZdB-6" vertex="1">
          <mxGeometry y="120" width="140" height="30" as="geometry" />
        </mxCell>
        <mxCell id="0NND2-33mNeLUR3VQcW5-82" value="permissão" style="text;strokeColor=none;fillColor=none;align=left;verticalAlign=middle;spacingLeft=4;spacingRight=4;overflow=hidden;points=[[0,0.5],[1,0.5]];portConstraint=eastwest;rotatable=0;whiteSpace=wrap;html=1;" parent="Phphtxd2D6d0RNNB2ZdB-6" vertex="1">
          <mxGeometry y="150" width="140" height="30" as="geometry" />
        </mxCell>
        <mxCell id="0NND2-33mNeLUR3VQcW5-99" value="Manuais" style="swimlane;fontStyle=0;childLayout=stackLayout;horizontal=1;startSize=30;horizontalStack=0;resizeParent=1;resizeParentMax=0;resizeLast=0;collapsible=1;marginBottom=0;whiteSpace=wrap;html=1;" parent="Phphtxd2D6d0RNNB2ZdB-5" vertex="1">
          <mxGeometry x="30" y="250" width="140" height="180" as="geometry" />
        </mxCell>
        <mxCell id="0NND2-33mNeLUR3VQcW5-101" value="Id" style="text;strokeColor=none;fillColor=none;align=left;verticalAlign=middle;spacingLeft=4;spacingRight=4;overflow=hidden;points=[[0,0.5],[1,0.5]];portConstraint=eastwest;rotatable=0;whiteSpace=wrap;html=1;" parent="0NND2-33mNeLUR3VQcW5-99" vertex="1">
          <mxGeometry y="30" width="140" height="30" as="geometry" />
        </mxCell>
        <mxCell id="0NND2-33mNeLUR3VQcW5-103" value="Titulo" style="text;strokeColor=none;fillColor=none;align=left;verticalAlign=middle;spacingLeft=4;spacingRight=4;overflow=hidden;points=[[0,0.5],[1,0.5]];portConstraint=eastwest;rotatable=0;whiteSpace=wrap;html=1;" parent="0NND2-33mNeLUR3VQcW5-99" vertex="1">
          <mxGeometry y="60" width="140" height="30" as="geometry" />
        </mxCell>
        <mxCell id="0NND2-33mNeLUR3VQcW5-104" value="Descrição" style="text;strokeColor=none;fillColor=none;align=left;verticalAlign=middle;spacingLeft=4;spacingRight=4;overflow=hidden;points=[[0,0.5],[1,0.5]];portConstraint=eastwest;rotatable=0;whiteSpace=wrap;html=1;" parent="0NND2-33mNeLUR3VQcW5-99" vertex="1">
          <mxGeometry y="90" width="140" height="30" as="geometry" />
        </mxCell>
        <mxCell id="0NND2-33mNeLUR3VQcW5-105" value="Conteúdo " style="text;strokeColor=none;fillColor=none;align=left;verticalAlign=middle;spacingLeft=4;spacingRight=4;overflow=hidden;points=[[0,0.5],[1,0.5]];portConstraint=eastwest;rotatable=0;whiteSpace=wrap;html=1;" parent="0NND2-33mNeLUR3VQcW5-99" vertex="1">
          <mxGeometry y="120" width="140" height="30" as="geometry" />
        </mxCell>
        <mxCell id="0NND2-33mNeLUR3VQcW5-106" value="Versão" style="text;strokeColor=none;fillColor=none;align=left;verticalAlign=middle;spacingLeft=4;spacingRight=4;overflow=hidden;points=[[0,0.5],[1,0.5]];portConstraint=eastwest;rotatable=0;whiteSpace=wrap;html=1;" parent="0NND2-33mNeLUR3VQcW5-99" vertex="1">
          <mxGeometry y="150" width="140" height="30" as="geometry" />
        </mxCell>
        <mxCell id="Phphtxd2D6d0RNNB2ZdB-15" value="Controller" style="swimlane;whiteSpace=wrap;html=1;fillColor=#d5e8d4;strokeColor=#82b366;" parent="1" vertex="1">
          <mxGeometry x="-175" y="468" width="200" height="384" as="geometry" />
        </mxCell>
        <mxCell id="Phphtxd2D6d0RNNB2ZdB-16" value="Controle de usuário" style="swimlane;fontStyle=0;childLayout=stackLayout;horizontal=1;startSize=30;horizontalStack=0;resizeParent=1;resizeParentMax=0;resizeLast=0;collapsible=1;marginBottom=0;whiteSpace=wrap;html=1;" parent="Phphtxd2D6d0RNNB2ZdB-15" vertex="1">
          <mxGeometry x="30" y="40" width="140" height="60" as="geometry" />
        </mxCell>
        <mxCell id="Phphtxd2D6d0RNNB2ZdB-18" value="Autenticação" style="text;strokeColor=none;fillColor=none;align=left;verticalAlign=middle;spacingLeft=4;spacingRight=4;overflow=hidden;points=[[0,0.5],[1,0.5]];portConstraint=eastwest;rotatable=0;whiteSpace=wrap;html=1;" parent="Phphtxd2D6d0RNNB2ZdB-16" vertex="1">
          <mxGeometry y="30" width="140" height="30" as="geometry" />
        </mxCell>
        <mxCell id="0NND2-33mNeLUR3VQcW5-78" value="&lt;font style=&quot;font-size: 11px;&quot;&gt;Interações com manuais&lt;/font&gt;" style="swimlane;fontStyle=0;childLayout=stackLayout;horizontal=1;startSize=30;horizontalStack=0;resizeParent=1;resizeParentMax=0;resizeLast=0;collapsible=1;marginBottom=0;whiteSpace=wrap;html=1;" parent="Phphtxd2D6d0RNNB2ZdB-15" vertex="1">
          <mxGeometry x="30" y="220" width="140" height="150" as="geometry" />
        </mxCell>
        <mxCell id="0NND2-33mNeLUR3VQcW5-79" value="Adicionar" style="text;strokeColor=none;fillColor=none;align=left;verticalAlign=middle;spacingLeft=4;spacingRight=4;overflow=hidden;points=[[0,0.5],[1,0.5]];portConstraint=eastwest;rotatable=0;whiteSpace=wrap;html=1;" parent="0NND2-33mNeLUR3VQcW5-78" vertex="1">
          <mxGeometry y="30" width="140" height="30" as="geometry" />
        </mxCell>
        <mxCell id="0NND2-33mNeLUR3VQcW5-80" value="Atualizar" style="text;strokeColor=none;fillColor=none;align=left;verticalAlign=middle;spacingLeft=4;spacingRight=4;overflow=hidden;points=[[0,0.5],[1,0.5]];portConstraint=eastwest;rotatable=0;whiteSpace=wrap;html=1;" parent="0NND2-33mNeLUR3VQcW5-78" vertex="1">
          <mxGeometry y="60" width="140" height="30" as="geometry" />
        </mxCell>
        <mxCell id="0NND2-33mNeLUR3VQcW5-110" value="Visualizar" style="text;strokeColor=none;fillColor=none;align=left;verticalAlign=middle;spacingLeft=4;spacingRight=4;overflow=hidden;points=[[0,0.5],[1,0.5]];portConstraint=eastwest;rotatable=0;whiteSpace=wrap;html=1;" parent="0NND2-33mNeLUR3VQcW5-78" vertex="1">
          <mxGeometry y="90" width="140" height="30" as="geometry" />
        </mxCell>
        <mxCell id="0NND2-33mNeLUR3VQcW5-96" value="Listar" style="text;strokeColor=none;fillColor=none;align=left;verticalAlign=middle;spacingLeft=4;spacingRight=4;overflow=hidden;points=[[0,0.5],[1,0.5]];portConstraint=eastwest;rotatable=0;whiteSpace=wrap;html=1;" parent="0NND2-33mNeLUR3VQcW5-78" vertex="1">
          <mxGeometry y="120" width="140" height="30" as="geometry" />
        </mxCell>
        <mxCell id="Phphtxd2D6d0RNNB2ZdB-20" value="View" style="swimlane;whiteSpace=wrap;html=1;fillColor=#f8cecc;strokeColor=#b85450;" parent="1" vertex="1">
          <mxGeometry x="-455" y="468" width="200" height="642" as="geometry" />
        </mxCell>
        <mxCell id="Phphtxd2D6d0RNNB2ZdB-21" value="Login" style="swimlane;fontStyle=0;childLayout=stackLayout;horizontal=1;startSize=30;horizontalStack=0;resizeParent=1;resizeParentMax=0;resizeLast=0;collapsible=1;marginBottom=0;whiteSpace=wrap;html=1;" parent="Phphtxd2D6d0RNNB2ZdB-20" vertex="1">
          <mxGeometry x="30" y="40" width="140" height="60" as="geometry" />
        </mxCell>
        <mxCell id="0NND2-33mNeLUR3VQcW5-3" value="Formulário" style="text;strokeColor=none;fillColor=none;align=left;verticalAlign=middle;spacingLeft=4;spacingRight=4;overflow=hidden;points=[[0,0.5],[1,0.5]];portConstraint=eastwest;rotatable=0;whiteSpace=wrap;html=1;" parent="Phphtxd2D6d0RNNB2ZdB-21" vertex="1">
          <mxGeometry y="30" width="140" height="30" as="geometry" />
        </mxCell>
        <mxCell id="0NND2-33mNeLUR3VQcW5-14" value="Homepage Admin" style="swimlane;fontStyle=0;childLayout=stackLayout;horizontal=1;startSize=30;horizontalStack=0;resizeParent=1;resizeParentMax=0;resizeLast=0;collapsible=1;marginBottom=0;whiteSpace=wrap;html=1;" parent="Phphtxd2D6d0RNNB2ZdB-20" vertex="1">
          <mxGeometry x="30" y="150" width="140" height="180" as="geometry" />
        </mxCell>
        <mxCell id="0NND2-33mNeLUR3VQcW5-15" value="&lt;div&gt;Adicionar manual&lt;/div&gt;" style="text;strokeColor=none;fillColor=none;align=left;verticalAlign=middle;spacingLeft=4;spacingRight=4;overflow=hidden;points=[[0,0.5],[1,0.5]];portConstraint=eastwest;rotatable=0;whiteSpace=wrap;html=1;" parent="0NND2-33mNeLUR3VQcW5-14" vertex="1">
          <mxGeometry y="30" width="140" height="30" as="geometry" />
        </mxCell>
        <mxCell id="0NND2-33mNeLUR3VQcW5-16" value="Acessar manual" style="text;strokeColor=none;fillColor=none;align=left;verticalAlign=middle;spacingLeft=4;spacingRight=4;overflow=hidden;points=[[0,0.5],[1,0.5]];portConstraint=eastwest;rotatable=0;whiteSpace=wrap;html=1;" parent="0NND2-33mNeLUR3VQcW5-14" vertex="1">
          <mxGeometry y="60" width="140" height="30" as="geometry" />
        </mxCell>
        <mxCell id="0NND2-33mNeLUR3VQcW5-17" value="Pesquisar" style="text;strokeColor=none;fillColor=none;align=left;verticalAlign=middle;spacingLeft=4;spacingRight=4;overflow=hidden;points=[[0,0.5],[1,0.5]];portConstraint=eastwest;rotatable=0;whiteSpace=wrap;html=1;" parent="0NND2-33mNeLUR3VQcW5-14" vertex="1">
          <mxGeometry y="90" width="140" height="30" as="geometry" />
        </mxCell>
        <mxCell id="RVlyxZWpDBU2FAFkxGse-7" value="Atualizar" style="text;strokeColor=none;fillColor=none;align=left;verticalAlign=middle;spacingLeft=4;spacingRight=4;overflow=hidden;points=[[0,0.5],[1,0.5]];portConstraint=eastwest;rotatable=0;whiteSpace=wrap;html=1;" parent="0NND2-33mNeLUR3VQcW5-14" vertex="1">
          <mxGeometry y="120" width="140" height="30" as="geometry" />
        </mxCell>
        <mxCell id="0NND2-33mNeLUR3VQcW5-95" value="Perfil" style="text;strokeColor=none;fillColor=none;align=left;verticalAlign=middle;spacingLeft=4;spacingRight=4;overflow=hidden;points=[[0,0.5],[1,0.5]];portConstraint=eastwest;rotatable=0;whiteSpace=wrap;html=1;" parent="0NND2-33mNeLUR3VQcW5-14" vertex="1">
          <mxGeometry y="150" width="140" height="30" as="geometry" />
        </mxCell>
        <mxCell id="0NND2-33mNeLUR3VQcW5-48" value="Homepage Funcionário" style="swimlane;fontStyle=0;childLayout=stackLayout;horizontal=1;startSize=30;horizontalStack=0;resizeParent=1;resizeParentMax=0;resizeLast=0;collapsible=1;marginBottom=0;whiteSpace=wrap;html=1;" parent="Phphtxd2D6d0RNNB2ZdB-20" vertex="1">
          <mxGeometry x="30" y="360" width="140" height="120" as="geometry" />
        </mxCell>
        <mxCell id="0NND2-33mNeLUR3VQcW5-49" value="Perfil&lt;span style=&quot;white-space: pre;&quot;&gt;&#x9;&lt;/span&gt;&lt;span style=&quot;white-space: pre;&quot;&gt;&#x9;&lt;/span&gt;&lt;span style=&quot;white-space: pre;&quot;&gt;&#x9;&lt;/span&gt;" style="text;strokeColor=none;fillColor=none;align=left;verticalAlign=middle;spacingLeft=4;spacingRight=4;overflow=hidden;points=[[0,0.5],[1,0.5]];portConstraint=eastwest;rotatable=0;whiteSpace=wrap;html=1;" parent="0NND2-33mNeLUR3VQcW5-48" vertex="1">
          <mxGeometry y="30" width="140" height="30" as="geometry" />
        </mxCell>
        <mxCell id="0NND2-33mNeLUR3VQcW5-50" value="Acessar manual" style="text;strokeColor=none;fillColor=none;align=left;verticalAlign=middle;spacingLeft=4;spacingRight=4;overflow=hidden;points=[[0,0.5],[1,0.5]];portConstraint=eastwest;rotatable=0;whiteSpace=wrap;html=1;" parent="0NND2-33mNeLUR3VQcW5-48" vertex="1">
          <mxGeometry y="60" width="140" height="30" as="geometry" />
        </mxCell>
        <mxCell id="0NND2-33mNeLUR3VQcW5-51" value="Pesquisar" style="text;strokeColor=none;fillColor=none;align=left;verticalAlign=middle;spacingLeft=4;spacingRight=4;overflow=hidden;points=[[0,0.5],[1,0.5]];portConstraint=eastwest;rotatable=0;whiteSpace=wrap;html=1;" parent="0NND2-33mNeLUR3VQcW5-48" vertex="1">
          <mxGeometry y="90" width="140" height="30" as="geometry" />
        </mxCell>
        <mxCell id="OikA5QTbgcxvVGPSsBeh-4" value="Tela de manuais" style="swimlane;fontStyle=0;childLayout=stackLayout;horizontal=1;startSize=30;horizontalStack=0;resizeParent=1;resizeParentMax=0;resizeLast=0;collapsible=1;marginBottom=0;whiteSpace=wrap;html=1;" vertex="1" parent="Phphtxd2D6d0RNNB2ZdB-20">
          <mxGeometry x="30" y="502" width="140" height="60" as="geometry" />
        </mxCell>
        <mxCell id="OikA5QTbgcxvVGPSsBeh-5" value="Informações do manual" style="text;strokeColor=none;fillColor=none;align=left;verticalAlign=middle;spacingLeft=4;spacingRight=4;overflow=hidden;points=[[0,0.5],[1,0.5]];portConstraint=eastwest;rotatable=0;whiteSpace=wrap;html=1;" vertex="1" parent="OikA5QTbgcxvVGPSsBeh-4">
          <mxGeometry y="30" width="140" height="30" as="geometry" />
        </mxCell>
        <mxCell id="Phphtxd2D6d0RNNB2ZdB-27" value="Servidor de banco de dados" style="swimlane;whiteSpace=wrap;html=1;fillColor=#ffe6cc;strokeColor=#d79b00;" parent="1" vertex="1">
          <mxGeometry x="355" y="468" width="200" height="310" as="geometry" />
        </mxCell>
        <mxCell id="0NND2-33mNeLUR3VQcW5-7" value="PostgreSQL" style="image;aspect=fixed;html=1;points=[];align=center;fontSize=12;image=img/lib/azure2/databases/Azure_Database_PostgreSQL_Server.svg;fontColor=#FFFFFF;labelBackgroundColor=#0D0D0D;" parent="Phphtxd2D6d0RNNB2ZdB-27" vertex="1">
          <mxGeometry x="76" y="180" width="48" height="64" as="geometry" />
        </mxCell>
        <mxCell id="0NND2-33mNeLUR3VQcW5-10" value="Render" style="image;html=1;image=img/lib/clip_art/computers/Server_Rack_128x128.png;fontColor=#FFFFFF;labelBackgroundColor=#080808;" parent="Phphtxd2D6d0RNNB2ZdB-27" vertex="1">
          <mxGeometry x="60" y="42.81" width="80" height="80" as="geometry" />
        </mxCell>
        <mxCell id="0NND2-33mNeLUR3VQcW5-60" style="edgeStyle=orthogonalEdgeStyle;rounded=0;orthogonalLoop=1;jettySize=auto;html=1;exitX=1;exitY=0.5;exitDx=0;exitDy=0;" parent="1" target="Phphtxd2D6d0RNNB2ZdB-18" edge="1">
          <mxGeometry relative="1" as="geometry">
            <mxPoint x="-285" y="553" as="sourcePoint" />
          </mxGeometry>
        </mxCell>
        <mxCell id="0NND2-33mNeLUR3VQcW5-61" style="edgeStyle=orthogonalEdgeStyle;rounded=0;orthogonalLoop=1;jettySize=auto;html=1;exitX=1;exitY=0.5;exitDx=0;exitDy=0;" parent="1" source="0NND2-33mNeLUR3VQcW5-3" target="Phphtxd2D6d0RNNB2ZdB-18" edge="1">
          <mxGeometry relative="1" as="geometry" />
        </mxCell>
        <mxCell id="0NND2-33mNeLUR3VQcW5-88" style="edgeStyle=orthogonalEdgeStyle;rounded=0;orthogonalLoop=1;jettySize=auto;html=1;entryX=-0.001;entryY=0.101;entryDx=0;entryDy=0;entryPerimeter=0;" parent="1" source="Phphtxd2D6d0RNNB2ZdB-18" target="Phphtxd2D6d0RNNB2ZdB-6" edge="1">
          <mxGeometry relative="1" as="geometry" />
        </mxCell>
        <mxCell id="0NND2-33mNeLUR3VQcW5-90" style="edgeStyle=orthogonalEdgeStyle;rounded=0;orthogonalLoop=1;jettySize=auto;html=1;entryX=0.989;entryY=0.09;entryDx=0;entryDy=0;entryPerimeter=0;startArrow=classic;startFill=1;" parent="1" source="0NND2-33mNeLUR3VQcW5-7" target="Phphtxd2D6d0RNNB2ZdB-6" edge="1">
          <mxGeometry relative="1" as="geometry">
            <Array as="points">
              <mxPoint x="455" y="628" />
              <mxPoint x="315" y="628" />
              <mxPoint x="315" y="524" />
            </Array>
          </mxGeometry>
        </mxCell>
        <mxCell id="0NND2-33mNeLUR3VQcW5-97" style="edgeStyle=orthogonalEdgeStyle;rounded=0;orthogonalLoop=1;jettySize=auto;html=1;exitX=0;exitY=0.5;exitDx=0;exitDy=0;" parent="1" edge="1">
          <mxGeometry relative="1" as="geometry">
            <mxPoint x="-283" y="638" as="targetPoint" />
            <Array as="points">
              <mxPoint x="-265" y="583" />
              <mxPoint x="-265" y="638" />
            </Array>
            <mxPoint x="-145" y="583" as="sourcePoint" />
          </mxGeometry>
        </mxCell>
        <mxCell id="0NND2-33mNeLUR3VQcW5-98" style="edgeStyle=orthogonalEdgeStyle;rounded=0;orthogonalLoop=1;jettySize=auto;html=1;entryX=1;entryY=0.167;entryDx=0;entryDy=0;entryPerimeter=0;exitX=0.034;exitY=1.004;exitDx=0;exitDy=0;exitPerimeter=0;" parent="1" source="Phphtxd2D6d0RNNB2ZdB-18" target="0NND2-33mNeLUR3VQcW5-48" edge="1">
          <mxGeometry relative="1" as="geometry">
            <mxPoint x="-275" y="808" as="targetPoint" />
            <Array as="points">
              <mxPoint x="-140" y="583" />
              <mxPoint x="-265" y="583" />
              <mxPoint x="-265" y="848" />
            </Array>
            <mxPoint x="-140" y="570" as="sourcePoint" />
          </mxGeometry>
        </mxCell>
        <mxCell id="RVlyxZWpDBU2FAFkxGse-1" style="edgeStyle=orthogonalEdgeStyle;rounded=0;orthogonalLoop=1;jettySize=auto;html=1;entryX=0;entryY=0.5;entryDx=0;entryDy=0;" parent="1" source="0NND2-33mNeLUR3VQcW5-15" target="0NND2-33mNeLUR3VQcW5-79" edge="1">
          <mxGeometry relative="1" as="geometry">
            <Array as="points">
              <mxPoint x="-180" y="663" />
              <mxPoint x="-180" y="733" />
            </Array>
          </mxGeometry>
        </mxCell>
        <mxCell id="RVlyxZWpDBU2FAFkxGse-2" style="edgeStyle=orthogonalEdgeStyle;rounded=0;orthogonalLoop=1;jettySize=auto;html=1;entryX=0.007;entryY=0.606;entryDx=0;entryDy=0;entryPerimeter=0;" parent="1" source="0NND2-33mNeLUR3VQcW5-16" target="0NND2-33mNeLUR3VQcW5-110" edge="1">
          <mxGeometry relative="1" as="geometry">
            <Array as="points">
              <mxPoint x="-240" y="693" />
              <mxPoint x="-240" y="796" />
            </Array>
          </mxGeometry>
        </mxCell>
        <mxCell id="RVlyxZWpDBU2FAFkxGse-3" style="edgeStyle=orthogonalEdgeStyle;rounded=0;orthogonalLoop=1;jettySize=auto;html=1;entryX=0.01;entryY=0.606;entryDx=0;entryDy=0;entryPerimeter=0;" parent="1" source="0NND2-33mNeLUR3VQcW5-50" target="0NND2-33mNeLUR3VQcW5-110" edge="1">
          <mxGeometry relative="1" as="geometry">
            <Array as="points">
              <mxPoint x="-240" y="903" />
              <mxPoint x="-240" y="796" />
            </Array>
          </mxGeometry>
        </mxCell>
        <mxCell id="RVlyxZWpDBU2FAFkxGse-4" style="edgeStyle=orthogonalEdgeStyle;rounded=0;orthogonalLoop=1;jettySize=auto;html=1;" parent="1" source="0NND2-33mNeLUR3VQcW5-51" target="0NND2-33mNeLUR3VQcW5-96" edge="1">
          <mxGeometry relative="1" as="geometry">
            <Array as="points">
              <mxPoint x="-195" y="933" />
              <mxPoint x="-195" y="823" />
            </Array>
          </mxGeometry>
        </mxCell>
        <mxCell id="RVlyxZWpDBU2FAFkxGse-5" style="edgeStyle=orthogonalEdgeStyle;rounded=0;orthogonalLoop=1;jettySize=auto;html=1;entryX=0;entryY=0.5;entryDx=0;entryDy=0;" parent="1" target="0NND2-33mNeLUR3VQcW5-96" edge="1">
          <mxGeometry relative="1" as="geometry">
            <mxPoint x="-285" y="718" as="sourcePoint" />
            <Array as="points">
              <mxPoint x="-195" y="718" />
              <mxPoint x="-195" y="823" />
            </Array>
          </mxGeometry>
        </mxCell>
        <mxCell id="RVlyxZWpDBU2FAFkxGse-6" style="edgeStyle=orthogonalEdgeStyle;rounded=0;orthogonalLoop=1;jettySize=auto;html=1;entryX=-0.004;entryY=0.086;entryDx=0;entryDy=0;entryPerimeter=0;exitX=1.019;exitY=0.112;exitDx=0;exitDy=0;exitPerimeter=0;startArrow=classic;startFill=1;" parent="1" source="0NND2-33mNeLUR3VQcW5-78" target="0NND2-33mNeLUR3VQcW5-99" edge="1">
          <mxGeometry relative="1" as="geometry" />
        </mxCell>
        <mxCell id="RVlyxZWpDBU2FAFkxGse-8" style="edgeStyle=orthogonalEdgeStyle;rounded=0;orthogonalLoop=1;jettySize=auto;html=1;entryX=0.001;entryY=0.627;entryDx=0;entryDy=0;entryPerimeter=0;" parent="1" source="RVlyxZWpDBU2FAFkxGse-7" target="0NND2-33mNeLUR3VQcW5-80" edge="1">
          <mxGeometry relative="1" as="geometry">
            <Array as="points">
              <mxPoint x="-155" y="748" />
              <mxPoint x="-155" y="767" />
            </Array>
          </mxGeometry>
        </mxCell>
        <mxCell id="D-5tFLqHSrdqwGdT5ohc-5" style="edgeStyle=orthogonalEdgeStyle;rounded=0;orthogonalLoop=1;jettySize=auto;html=1;entryX=0;entryY=0.5;entryDx=0;entryDy=0;dashed=1;startArrow=classic;startFill=1;endSize=6;strokeWidth=2;" parent="1" source="D-5tFLqHSrdqwGdT5ohc-1" target="Phphtxd2D6d0RNNB2ZdB-20" edge="1">
          <mxGeometry relative="1" as="geometry" />
        </mxCell>
        <mxCell id="VwCdM-h8wfl775IcFjer-5" style="edgeStyle=orthogonalEdgeStyle;rounded=0;orthogonalLoop=1;jettySize=auto;html=1;entryX=0;entryY=0.5;entryDx=0;entryDy=0;exitX=0.5;exitY=0;exitDx=0;exitDy=0;" parent="1" source="D-5tFLqHSrdqwGdT5ohc-1" target="VwCdM-h8wfl775IcFjer-1" edge="1">
          <mxGeometry relative="1" as="geometry">
            <Array as="points">
              <mxPoint x="-625" y="312" />
            </Array>
          </mxGeometry>
        </mxCell>
        <mxCell id="D-5tFLqHSrdqwGdT5ohc-1" value="Cliente" style="swimlane;whiteSpace=wrap;html=1;" parent="1" vertex="1">
          <mxGeometry x="-725" y="613" width="200" height="200" as="geometry" />
        </mxCell>
        <mxCell id="D-5tFLqHSrdqwGdT5ohc-2" value="" style="shape=image;html=1;verticalAlign=top;verticalLabelPosition=bottom;labelBackgroundColor=#ffffff;imageAspect=0;aspect=fixed;image=https://cdn2.iconfinder.com/data/icons/browsers/Firefox.png" parent="D-5tFLqHSrdqwGdT5ohc-1" vertex="1">
          <mxGeometry x="52.5" y="65" width="95" height="95" as="geometry" />
        </mxCell>
        <mxCell id="D-5tFLqHSrdqwGdT5ohc-3" value="Usuário" style="sketch=0;outlineConnect=0;fontColor=#232F3E;gradientColor=none;fillColor=#232F3D;strokeColor=none;dashed=0;verticalLabelPosition=bottom;verticalAlign=top;align=center;html=1;fontSize=12;fontStyle=0;aspect=fixed;pointerEvents=1;shape=mxgraph.aws4.user;" parent="1" vertex="1">
          <mxGeometry x="-730" y="502.38" width="65.62" height="65.62" as="geometry" />
        </mxCell>
        <mxCell id="VwCdM-h8wfl775IcFjer-2" style="edgeStyle=orthogonalEdgeStyle;rounded=0;orthogonalLoop=1;jettySize=auto;html=1;strokeWidth=2;dashed=1;startArrow=none;startFill=0;" parent="1" source="VwCdM-h8wfl775IcFjer-1" target="Phphtxd2D6d0RNNB2ZdB-15" edge="1">
          <mxGeometry relative="1" as="geometry" />
        </mxCell>
        <mxCell id="VwCdM-h8wfl775IcFjer-1" value="Router" style="swimlane;whiteSpace=wrap;html=1;" parent="1" vertex="1">
          <mxGeometry x="-175" y="212" width="200" height="200" as="geometry" />
        </mxCell>
        <mxCell id="VwCdM-h8wfl775IcFjer-4" value="" style="image;aspect=fixed;perimeter=ellipsePerimeter;html=1;align=center;shadow=0;dashed=0;spacingTop=3;image=img/lib/active_directory/shadowed_router.svg;" parent="VwCdM-h8wfl775IcFjer-1" vertex="1">
          <mxGeometry x="65.15" y="57.5" width="69.7" height="85" as="geometry" />
        </mxCell>
        <mxCell id="VwCdM-h8wfl775IcFjer-8" style="edgeStyle=orthogonalEdgeStyle;rounded=0;orthogonalLoop=1;jettySize=auto;html=1;entryX=1;entryY=0.5;entryDx=0;entryDy=0;dashed=1;startArrow=classic;startFill=1;strokeWidth=2;" parent="1" source="VwCdM-h8wfl775IcFjer-6" target="Phphtxd2D6d0RNNB2ZdB-27" edge="1">
          <mxGeometry relative="1" as="geometry" />
        </mxCell>
        <mxCell id="VwCdM-h8wfl775IcFjer-6" value="Vertical Container" style="swimlane;whiteSpace=wrap;html=1;" parent="1" vertex="1">
          <mxGeometry x="600" y="553.5" width="150" height="139" as="geometry" />
        </mxCell>
        <mxCell id="VwCdM-h8wfl775IcFjer-7" value="" style="shape=image;verticalLabelPosition=bottom;labelBackgroundColor=default;verticalAlign=top;aspect=fixed;imageAspect=0;image=data:image/jpeg,/9j/4AAQSkZJRgABAQAAAQABAAD/2wCEAAkGBxIPEQ8QEBAQEBAWEBMRFRUWEhAVEhEVFRcWFhURExcYHSghGBonGxcWJDEhJSkrLy4uFyAzODMsNygtLisBCgoKDg0OGxAQFysfICItLS0tLS0tLS0tLS0tLS0rLS0tLS0tLS0tLS0rLS0tLS0rLS0tLS0tLS0tLS0tLS0tN//AABEIAOEA4QMBIgACEQEDEQH/xAAcAAEAAgIDAQAAAAAAAAAAAAAABgcBBQMECAL/xABKEAACAQMABQgGBgYGCwEAAAAAAQIDBBEFBhIhUQcTMUFhcYGRIjJCUqHBFCNygrHRFWOSorLCJTNic5PwQ1NUZIOUo7O04fEk/8QAGAEBAQEBAQAAAAAAAAAAAAAAAAIDAQT/xAAhEQEAAgICAgIDAAAAAAAAAAAAAQIRMRIhQVEDYRMiMv/aAAwDAQACEQMRAD8AvEAAAAAAAAAAAYAAAAAAAAAAAAZBgAZAAAAAAAAAAAAAAAAAAAAwAAAAAAAAAAAAA0msOtFvYxfOSTmvZTW7htP2fx7Dkzh2Iy3YKilr7pG+qOGjrec0nhuMFsR4bUpdHi49xtLex1jmk3VtKT92dSWV2PYUl8TnL6Vx+1kgg9nV05btOtRtryHXGlVjGeOMecUfi33EvsLvnoKXN1KT6HGpFxkn+DXatx2JTMYdkAHXGQYMgAAAAAAAAAAAAMACO6w65WtllTntTW7ZTW58G+PYsvsNXyka2/QafNU39dJdKe+KfQk+pvpb6l2tFF3VzOrJznJyk/JdiXUiJt6XWvmVqXPLBv8Aq7fd25fxyvwOax5YKbaVa2nFdbi+jw35KgBzMrxHp6V0DrTaXy+orRcuuD9GovD8jdHlOjVlCSnCTjJPKabTT7GXnyX64S0hSnQrtO6pJPP+tp9Cqd6e598X1lRKLVxpOQAUgBjJB+UnW5WlJ0ab+tksPD3rK9Xs3b2+pdrRyZw7EZcGvnKBC1UqNvJSqYack+jjsvq+15cVotXNSZXCV9pmo6VJvahQlJwbzvTqvOY5931n1tdBz8mGprquOk71bTbU7eElu7K8l/AuhdPu42vLQpfQ6cotpKriWODx+X4kfcrzGoTHRFxa7EaVrKioRWFCnspRXZFdCNgeWdH3NWlOLoTqQqJ5jsOSlnsSLN0HrnpJRxcc08LdKUY7T74x/H4HeeNn486WyCpdOcotzQSSlHbaylGEVhcW5ZwQvSGut9Xb2ricVwi3jyfyHPOj8ft6OB5anpKtJ5darn7cl+DL35K72rX0bRlWnKclOrBSlvk4xm0svrx0eB2Jyma4S4AFJZBgyAAAAAAAABg+ZzUU5N4STbfBLpPo1es9bYtLh/q3H9rEX+JyZxDsRmVA666VldXdWb6FJpLhnpXhuj91GiPqrU25Sk+mUnLzeT5M2wAA4G41Q0w7G9trjOIRqKNTfudKfozzxwntd8Uacw0B6wIrymXkqNhUcXht7PlGU/xijv6kX7udH2VVvak6EYyfGcPQm/2os6/KDo93FhcRisyjFzXgmn8Gy7aZ1289SvKr6atT9uX5km5PdXJaUulzzlO2o4nV2m2pZfo0Vn3mnnsi+KIi31nozk/0B+j7KlTksVprnq3HnJpei/srEfuk1hdpxCRpY3Lcvgis+UXSv02P0Whs82praqPflrOXHisZS4t56EbrXPWDG1a0ZdlWS/7a+flxIWT8l/EK+OnmXVsLCnQjswW/rk/Wl3v5HaAMWzR6y6LlV2atNbUorZcetxzlY7Vl7u0ibLIOne6LpVt84el7y3S8+vxLrbCJrlBadNyajFZk3hLi2XtyXT5uhK0znm8TXbtevjs2t/3iv9HaHpUG5RzKXvSabS4LCWCZah1Nm6x71KcfjGXyKi37Qm1f1lYoAN3nAABkGEZAAAAYMmABodenjR92+FNPylFm+NFrzHOj71fqJfI5Ona7ebUADNqAAAAAL65H6mdF0l7tWtHzm5/zE0lFNNNZTWGuKfUQHkTnnR9RcLuov3KT+ZNtI3kaFKpVl0RjnHF9Ciu1vC8TSNMp2o7RurqenY2mM04XMqr4bFPNTf2NpL7xcGtemPotH0X9bPMYf2fen4ZXi0VvybXv0jTdzVk027Ws0+Mucoptd/pM3Ou9dzu5xfRCMIrxipt+cvgZzOKtcZs0Lfiz5nNRTcmkuLeEvE+jiuqPOQnB+1Fx810mDdyghei9M1Lf0JLbgnhxb3x47L6u7o7iVWOkKddZpyTfXF7pLvXzKmswmJy7QB81JqKcpPEUm2+CXWSpqry4xeW0E/Ynnuknj4wRv9W7r+ldH0Yv2q1Sf2VQrbKf3t/giAPSj+kO4xnfLZT4bLjFP4ZJXyR0519Kc7LLcKFWpJ9WXs00v3ty7DWte4ZWt1K8wAbvOAAAZMGUAAAAwGABrNZqW3Z3UeNCfwWTZnFd0ecp1Ie9CUf2k0cnTsbeVUDsaRouFarBrGKkvx3fA65m2AAHAAAXTyGv/wDDcr/fZPzo0PyOpyw6ybEVawlh9MnnoeN/lF+cuw+eSG/Vvo6/qy9i5ckuLdKkox8Xgi+rVs9L6Xg5+nSjJ158HCm87+yU3HK4SfA7PpyI7mUn0Tqm9GWtlpCM+bvYtSqQllwqQrbnbtJ7nGD6eMWzYaWv7W+xUk5W1dRw8xc6c+Cbjv8AHH/rl180jzlWNCL9Gmsy7ZyXyWPNkXM727wulesy+qkNltZUsPGVnD7Vk+QfNSoopyk8RSbb4Jb2ZtUF0zBRr1kvfb89/wAzqRk0002muhrc13HJdV3UnOb9qTl3Ze5HEbsW60VpS7qThRpfX1JPEYtJyk0m8J5Te5PpZv56o6YvMQnbKjT63KdOEO+SUpTfgmRzVK7VC+sqreIxuae0+pRlJRk33Jsv/W7S0bS3lKUsObVNcfSeJNduM+LXERWNuTadKm1t1ao6ItI03JV7yq05VMYVOO9KFJdSfp5fS3HqW5TLka0HzFpO6msTuJJx4qlDKh5tzl2pxIPrPcvTGlKdvTk9mVZUk17Mfaku2MIt9+S9bejGnCFOEVGEYqEYrojGKwkvBFV9ptPWHIAC2YAAAAAyAAMMAAAAB565TdHfR9I193ozaqLh6W/C7txFS3OW/ReYW90l6rdKT7Hvj8fwKjMm0TmAAAAABv7DS0qWj7ihHdzlyn35pqPwSl4tFg8kVlG0sbrSFRb6jaj206OUkuDdRzXgio6UJTcacFtSlNRjHjOWIpeLwi9NZ6cbOytLGD3KMYv+1Gkllvtcmn4MazJPeIRKtVc5SnJ5lKTk3xbeWfABg3CP613uzGNGL3y9KX2U9y8WvgSAgGkrnnatSfU5PH2Vuj8EiqR2m09OsADVkHYur+rVUY1Kk5qKwk3nH5+J1wHUw5JakI6Ut1LGZQrRh2T2G/4VJeJf55a0Xfytq1G4h61KpColnG1stNx7msrxPUFpcxrU6dWm9qE4RqRfGMknF+TLqzu5QAUgAAAAAAAAAAAAAafW/RSvLO4oYzJwbjx2o71jt6vE80zi4tp7mm0+xrcz1cefeU7Qv0S+qOKxTq/Ww4b/AFku5kWaUnwiQAJUAACVcl+jvpGk7ZNJxpbVxL/hr0H4VJQfgT3Xe65y7lHqpxjDxxtP4yx4Gr5CrPM76u10RpUov7TlKa+FM+NI1+crVqnvVJy8HJ4+By/8u0/p1wAYtnFdz2adSXCEn5JsrxFgaS/qa391U/hZX5pRncABaAAAC+uSHSXP6NpwbzKhUnQfcsTh4KM4r7pQpafIVd4nfUG9zjSqxXanKM38YeRVduW0twAFsgAAAAAAABgyzAAAACE8rGgvpVm6sFmrRe2uLj7S/wA9pNj5qQUk4yWYtNNdTT3NHJjLsTiXlIG+130G7C8q0sPYb26b4xe80Jm1AABcPIvLYsL6p1q4l+7Rpv5mlRtuSV/0VpL++rf+PSNUR8nhXx7kB17O8jV29l+rNwfh19zOwZtXHXhtQnHjGS81grpFkkB0rb83Wqw6tptd0t6+DNKIu6oALZgAAE65Ga2zpLHv2tWH71Of8pBSV8ldTGlrNe9z0X/gVZfynY2Tp6EABoxAAAAAGQAAMGTAAAAAABB+VfVz6Xa89TjmtRzJY6ZQ9qPz8yiD1dJJpprKe5rqfYefOUfVt2F3LZX1FVudN9Sz0w70RaGlZ8IoACVLf5HFtaO0hDrdep+9Qpr5Glqz2Yylwi35LJ2uQ3SCVa8tm/XpwrRX2G4z+E4eR19K0ObVxT6487D9nK+RPyeFU3KC6G0g7eopb3F7priuK7V+fEnNOaklKLTi1lNdDRXKNtoTTDoPYnl0m/GD95dnFf5a1cu1thMiM63W2+nVXX6D+Lj/ADeRJKdRSSlFqUWsproZ09N0OcoVV1qO2u+O/wCWPEzrOJXPcIKADZiAAASrktjnS1j2Ou3/AMvWXzRFSbcjtHa0nF+5b1p/ww/nOxsnS+QAaMQAAAgZAAAAAAMAAAAABotc9Xo6RtZ0XhVF6VOXuzXR4PoN6BLsTh5Vu7aVKc6dSLjOEnGSfSmjiLj5WdT+ei763j9ZFfWxS9eK9tdqKcMmsTlttVNMOxvLe537MJ4mt++nL0am7rey20uKRZWuVqlc1HHDhVgqkWuhqSw2n3pvxKfLC1f0v9KsadGbzXtHsLjO2nug/uSSh2Jx4nLadrtXiMnY0jS2KtWPCcsdzeV8MHXOjvaM0rO3fo+lB9MH0d64Mkf6eoTpye04vZfotPLeOhY3MhwOTWJdi0wIAHUgAAFn8hdnmte18erSp0k/tycpL/px80VgXhyK2exo+dTrq3NSXhBRp484S8yq7ctpPwAWyAAAMgAAAAAAAwZAGAAAAAGGs7nvRS3KZqK7aUry1i3byeakV00W/a+y/gXUYnFSTTSaaw01lNPpTRyYy7E4eUTms7qVGanB4a8pLri+KLJ195NJU3O50fFzhvlOgt8ocXS95f2enhnoKw/+d3YZzDWJd/TVxCrUVSHtQi5LrjJZTT8EjoAB0AAcAAAAAA9B8lWP0VZ7P67Pfz1TPxyefCz+RnWVwqPR1TfCe3Uov3ZpOVSn3NJyXapcSq7ctHS4AAWyADIAAAAAAAAAAADBkAYAAAAACJ62agWukc1MOhcP/SwS9J/rY9E+/c93SSwAicPPmnuTu/tG2qP0mmvbo5m8dtP10+5NdpFK0XB7M04S92ScZeT3nq4+alNSWJJSXak/xJ4r5vKO0uKGT1HU0Rby9a2oS76VN/I+P0Faf7Jbf4FL8jnF3m8xUYOclCEZTm3hRinKcnwjFb2TjRHJXfV4qdV0rVNbozblU8YxTS8XnsLutrOnS/q6dOn9mEY/gjnO8XJuoTSnJhpGhvhCncx/VVFtJcXGai/BZInc2FalLZq0a1OXCdOcX5NHqcDic3mbR+rN7cPFGzuJ9rpyhD9ueI/Etnk41Blo+TurmUZXLi4QhF5hSi/WbftTeEt25b+nJYAEVcm2QAyUkAAAAAAAAAAAAAAAAMGQBgGQBgAAAAAAAAAAADIGDIAAAAAAAAAAAAAAAAAAAAAAAAAAAAYAAAAAZQAAAAAAAAAAAAAAAAAA/9k=;" parent="VwCdM-h8wfl775IcFjer-6" vertex="1">
          <mxGeometry x="32" y="38" width="86" height="86" as="geometry" />
        </mxCell>
        <mxCell id="5d3JW4qevgfN3rSaGhzu-1" style="edgeStyle=orthogonalEdgeStyle;rounded=0;orthogonalLoop=1;jettySize=auto;html=1;entryX=0.985;entryY=0.699;entryDx=0;entryDy=0;exitX=0;exitY=0.5;exitDx=0;exitDy=0;entryPerimeter=0;" parent="1" source="0NND2-33mNeLUR3VQcW5-82" target="Phphtxd2D6d0RNNB2ZdB-18" edge="1">
          <mxGeometry relative="1" as="geometry">
            <Array as="points">
              <mxPoint x="125" y="670" />
              <mxPoint x="50" y="670" />
              <mxPoint x="50" y="559" />
            </Array>
          </mxGeometry>
        </mxCell>
        <mxCell id="OikA5QTbgcxvVGPSsBeh-3" style="edgeStyle=orthogonalEdgeStyle;rounded=0;orthogonalLoop=1;jettySize=auto;html=1;entryX=0.995;entryY=0.11;entryDx=0;entryDy=0;entryPerimeter=0;startArrow=classic;startFill=1;" edge="1" parent="1" source="0NND2-33mNeLUR3VQcW5-7" target="0NND2-33mNeLUR3VQcW5-99">
          <mxGeometry relative="1" as="geometry" />
        </mxCell>
        <mxCell id="OikA5QTbgcxvVGPSsBeh-8" style="edgeStyle=orthogonalEdgeStyle;rounded=0;orthogonalLoop=1;jettySize=auto;html=1;exitX=1;exitY=0.75;exitDx=0;exitDy=0;entryX=0.001;entryY=0.066;entryDx=0;entryDy=0;entryPerimeter=0;startArrow=classic;startFill=1;strokeWidth=1;" edge="1" parent="1" source="OikA5QTbgcxvVGPSsBeh-4" target="0NND2-33mNeLUR3VQcW5-78">
          <mxGeometry relative="1" as="geometry" />
        </mxCell>
      </root>
    </mxGraphModel>
  </diagram>
</mxfile>
